# xmcd CD database file
#
# Track frame offsets:
#	168
#	27974
#	57799
#	80614
#	101069
#	132480
#	156457
#	178746
#	198342
#	212021
#
# Disc length: 3268 seconds
#
# Revision: 0
# Processed by: cddbd v1.5.2PL0 Copyright (c) Steve Scherf et al.
# Submitted via: CDex 1.78
#
DISCID=8d0cc20a
DTITLE=Constantinople and Ablaye Cissoko - Jardins Migrateurs
DYEAR=2015
DGENRE=Arabic
TTITLE0=A l'ecoute du Moro
TTITLE1=Soutouro
TTITLE2=Poisson au fond de l'ocean
TTITLE3=Ahouye Vahshi
TTITLE4=Lountang
TTITLE5=Le pas de l'eau
TTITLE6=Fleuve Saint-Louis
TTITLE7=Traversees
TTITLE8=Before the rain
TTITLE9=L'aube au sommet
EXTD=YEAR: 2015
EXTT0=
EXTT1=
EXTT2=
EXTT3=
EXTT4=
EXTT5=
EXTT6=
EXTT7=
EXTT8=
EXTT9=
PLAYORDER=
